:SAMPLES-PER-SECOND 30
:FULLY-SPECIFIED
:DEGREES
1
root  -111.171 38.8919 0.164434 140.983 86.129 143.024
RightUpLeg  -19.0332 -1.45459 -1.33885
RightLeg  56.5079 9.76654 -1.0623
RightFoot  9.47605 -0.949546 4.72563
RightToes  1.16415e-010 -3.18055e-015 8.94531e-016
Spine  -0.606467 -2.32772 -7.67796
Spine1  10.8722 -3.66717 0.749746
HEad  -18.7896 -0.800806 5.48194
LeftShoulder1  0 -2.69403e-036 -1.28585e-037
LeftArm  13.9531 25.134 -85.023
LeftForeArm  -44.802 -27.9349 17.9398
LeftHand  1.23257 8.95761 0.428688
RightShoulder  -2.48481e-017 0 -8.08114e-019
RightArm  -4.31079 -32.9611 89.046
RightForeArm  -15.2199 13.0624 1.87295
RightHand  1.41898 -12.3648 -3.86969
LeftUpLeg  -9.58029 -4.68104 -6.85154
LeftLeg  22.6936 -2.22743 4.12186
LeftFoot  -10.5705 -0.0836729 2.1102
LeftToes  4.502e-010 -1.85808e-011 5.37561e-011
2
root  -109.749 39.0944 0.193293 155.431 85.3166 157.685
RightUpLeg  -21.3383 -1.49489 -0.507811
RightLeg  51.9852 9.86694 -0.628556
RightFoot  7.28379 -0.918959 5.116
RightToes  1.16415e-010 -3.18055e-015 8.94531e-016
Spine  -0.525704 -3.17629 -9.17943
Spine1  10.5983 -5.16478 3.71346
HEad  -18.2145 -0.600868 4.91682
LeftShoulder1  0 -2.69403e-036 -1.28585e-037
LeftArm  12.3018 20.6731 -84.5598
LeftForeArm  -37.9272 -31.2717 19.6046
LeftHand  1.09736 8.06239 -1.75129
RightShoulder  -2.48481e-017 0 -8.08114e-019
RightArm  -7.96384 -38.4989 87.9118
RightForeArm  -11.6325 11.2274 3.48465
RightHand  1.41798 -12.7022 -3.05634
LeftUpLeg  -6.26197 -3.72172 -5.98007
LeftLeg  20.9388 -4.32398 3.5503
LeftFoot  -11.091 -0.0686042 1.77135
LeftToes  4.502e-010 -1.85808e-011 5.37561e-011
3
root  -107.825 39.2303 0.239366 166.625 83.7507 169.147
RightUpLeg  -23.5349 -2.02978 -0.0588613
RightLeg  43.807 10.0913 -0.0107678
RightFoot  4.41504 -0.742344 4.72905
RightToes  1.16415e-010 -3.18055e-015 8.94531e-016
Spine  -0.0693463 -4.34054 -11.4522
Spine1  10.1264 -7.13087 7.51655
HEad  -18.203 0.472361 4.35599
LeftShoulder1  0 -2.69403e-036 -1.28585e-037
LeftArm  11.8354 14.2031 -83.3996
LeftForeArm  -34.0516 -35.4292 21.6325
LeftHand  1.03899 7.63003 -2.92486
RightShoulder  -2.48481e-017 0 -8.08114e-019
RightArm  -9.86922 -45.8171 85.709
RightForeArm  -9.05426 9.88175 4.52862
RightHand  1.47848 -13.1879 -3.01252
LeftUpLeg  -1.97541 -2.61401 -5.0451
LeftLeg  18.9444 -6.98892 3.011
LeftFoot  -12.1375 -0.0530793 1.55131
LeftToes  4.502e-010 -1.85808e-011 5.37561e-011
4
root  -106.011 39.153 0.293273 168.646 82.3667 171.207
RightUpLeg  -24.8935 -2.4976 -0.300984
RightLeg  34.462 10.9573 0.79715
RightFoot  1.87185 -0.511005 3.89984
RightToes  1.16415e-010 -3.18055e-015 8.94531e-016
Spine  0.478377 -5.2501 -13.2324
Spine1  9.54771 -8.51717 9.99349
HEad  -19.0811 1.88217 4.24889
LeftShoulder1  0 -2.69403e-036 -1.28585e-037
LeftArm  11.9336 8.32378 -81.7535
LeftForeArm  -34.7303 -38.8829 23.2665
LeftHand  1.06174 7.79394 -0.83114
RightShoulder  -2.48481e-017 0 -8.08114e-019
RightArm  -7.10755 -52.6332 82.6762
RightForeArm  -10.663 10.3456 4.31799
RightHand  1.5916 -13.6045 -3.95171
LeftUpLeg  1.67132 -1.55037 -4.35936
LeftLeg  17.487 -9.0481 2.80778
LeftFoot  -13.8204 -0.0335281 1.71468
LeftToes  4.502e-010 -1.85808e-011 5.37561e-011
5
root  -104.201 39.0834 0.32892 171.746 81.525 174.055
RightUpLeg  -25.5826 -2.28778 -0.519615
RightLeg  22.4123 11.598 1.01633
RightFoot  1.85532 -0.537003 4.07467
RightToes  1.16415e-010 -3.18055e-015 8.94531e-016
Spine  0.548896 -6.04123 -13.767
Spine1  9.04803 -9.51434 11.7035
HEad  -19.5696 2.6489 4.19783
LeftShoulder1  0 -2.69403e-036 -1.28585e-037
LeftArm  11.8849 3.56776 -79.9905
LeftForeArm  -34.5313 -40.9454 24.3734
LeftHand  1.0457 7.6329 0.266788
RightShoulder  -2.48481e-017 0 -8.08114e-019
RightArm  -0.892687 -59.1089 78.4707
RightForeArm  -14.6584 11.8058 3.361
RightHand  1.67595 -14.0321 -4.34298
LeftUpLeg  5.30681 -0.398995 -3.1344
LeftLeg  15.2643 -10.7772 2.51263
LeftFoot  -14.9025 -0.0301408 1.31884
LeftToes  4.502e-010 -1.85808e-011 5.37561e-011
6
root  -102.346 39.0103 0.369638 173.1 80.8421 175.075
RightUpLeg  -24.7202 -0.374285 -1.76554
RightLeg  7.48916 8.85079 0.830984
RightFoot  2.32014 -0.569734 4.19306
RightToes  1.16415e-010 -3.18055e-015 8.94531e-016
Spine  0.156374 -6.76906 -14.3431
Spine1  9.00689 -10.5101 13.0447
HEad  -19.2736 3.01514 4.12854
LeftShoulder1  0 -2.69403e-036 -1.28585e-037
LeftArm  11.9552 -0.416076 -78.4066
LeftForeArm  -33.7951 -41.4214 24.6818
LeftHand  1.03703 7.58201 -0.384601
RightShoulder  -2.48481e-017 0 -8.08114e-019
RightArm  5.75122 -64.3987 73.0623
RightForeArm  -16.8674 12.7233 2.69168
RightHand  1.67431 -14.2995 -3.79221
LeftUpLeg  8.44814 0.620065 -1.79451
LeftLeg  13.918 -12.6678 2.0674
LeftFoot  -14.3679 -0.0446153 -0.589519
LeftToes  4.502e-010 -1.85808e-011 5.37561e-011
7
root  -100.391 38.857 0.452732 171.344 80.1079 173.14
RightUpLeg  -23.9787 0.951909 -3.30625
RightLeg  -3.00977 4.77623 1.10138
RightFoot  1.28787 -0.539953 4.27192
RightToes  1.16415e-010 -3.18055e-015 8.94531e-016
Spine  -0.506385 -7.38639 -15.5604
Spine1  9.61134 -11.4995 14.0229
HEad  -19.1951 3.61177 4.11101
LeftShoulder1  0 -2.69403e-036 -1.28585e-037
LeftArm  11.7657 -3.62592 -77.284
LeftForeArm  -33.5105 -41.0124 24.4732
LeftHand  1.03066 7.53915 0.17288
RightShoulder  -2.48481e-017 0 -8.08114e-019
RightArm  10.1293 -67.7408 67.2544
RightForeArm  -15.5937 12.288 3.11381
RightHand  1.62024 -14.2658 -3.0808
LeftUpLeg  11.2198 1.32111 -0.618026
LeftLeg  14.1153 -15.0533 1.39877
LeftFoot  -12.288 -0.00727413 -2.96977
LeftToes  4.502e-010 -1.85808e-011 5.37561e-011
8
root  -98.3273 38.6206 0.577955 170.879 79.6953 172.391
RightUpLeg  -24.6806 0.572887 -3.47194
RightLeg  -5.09168 2.07601 1.45875
RightFoot  -0.174701 -0.465419 4.08704
RightToes  1.16415e-010 -3.18055e-015 8.94531e-016
Spine  -1.39927 -7.80171 -16.1307
Spine1  10.4298 -12.2738 14.6366
HEad  -19.4463 4.12514 3.88324
LeftShoulder1  0 -2.69403e-036 -1.28585e-037
LeftArm  10.8472 -4.91663 -76.7915
LeftForeArm  -33.1768 -40.4748 24.2033
LeftHand  1.00423 7.3475 1.39675
RightShoulder  -2.48481e-017 0 -8.08114e-019
RightArm  12.1394 -69.5078 61.9421
RightForeArm  -12.9748 10.9693 4.19246
RightHand  1.57078 -14.0986 -2.67387
LeftUpLeg  13.7897 1.46668 0.845808
LeftLeg  14.7745 -17.1194 0.705455
LeftFoot  -9.89309 0.13603 -5.33153
LeftToes  4.502e-010 -1.85808e-011 5.37561e-011
9
root  -96.1323 38.2568 0.720387 176.253 79.5335 177.225
RightUpLeg  -26.659 0.8455 -2.40171
RightLeg  0.0842794 -0.546634 0.848294
RightFoot  -0.0132008 -0.40313 3.48126
RightToes  1.16415e-010 -3.18055e-015 8.94531e-016
Spine  -2.68752 -8.29892 -14.6457
Spine1  11.2874 -12.8262 14.8372
HEad  -19.3316 4.23247 3.19512
LeftShoulder1  0 -2.69403e-036 -1.28585e-037
LeftArm  9.33177 -3.74489 -76.9462
LeftForeArm  -33.0155 -40.1673 24.0492
LeftHand  1.0151 7.42571 1.21332
RightShoulder  -2.48481e-017 0 -8.08114e-019
RightArm  12.8966 -70.5487 57.9209
RightForeArm  -11.2735 10.075 4.74438
RightHand  1.54323 -14.0086 -2.43389
LeftUpLeg  16.0073 -0.497847 2.85134
LeftLeg  15.673 -16.4283 -0.042325
LeftFoot  -8.61623 0.329146 -8.74814
LeftToes  4.502e-010 -1.85808e-011 5.37561e-011
10
root  -93.8628 37.7877 0.858621 -173.411 78.9617 -172.615
RightUpLeg  -28.8502 0.693528 0.336266
RightLeg  8.93113 -1.22641 -1.00661
RightFoot  2.91258 -0.341743 2.45509
RightToes  1.16415e-010 -3.18055e-015 8.94531e-016
Spine  -3.55067 -8.9091 -11.3836
Spine1  11.9203 -13.2393 14.7139
HEad  -18.8751 4.28341 2.27803
LeftShoulder1  0 -2.69403e-036 -1.28585e-037
LeftArm  7.82986 -0.839681 -77.7889
LeftForeArm  -33.3599 -39.8334 23.8509
LeftHand  1.04871 7.65122 0.709403
RightShoulder  -2.48481e-017 0 -8.08114e-019
RightArm  12.807 -70.9811 56.3504
RightForeArm  -11.1086 10.2883 4.36763
RightHand  1.50995 -13.8505 -2.22179
LeftUpLeg  17.3113 -4.11925 5.68587
LeftLeg  18.684 -13.2992 -1.05232
LeftFoot  -6.12664 0.795472 -12.3332
LeftToes  4.502e-010 -1.85808e-011 5.37561e-011
11
root  -91.7227 37.3432 0.992915 -162.85 77.8864 -161.201
RightUpLeg  -29.7078 -0.832365 4.24383
RightLeg  17.2722 0.963085 -2.53974
RightFoot  6.10583 0.00079318 0.0391476
RightToes  1.16415e-010 -3.18055e-015 8.94531e-016
Spine  -2.44158 -9.11866 -7.83231
Spine1  11.7672 -13.4518 14.8697
HEad  -18.8207 4.43099 1.65117
LeftShoulder1  0 -2.69403e-036 -1.28585e-037
LeftArm  6.80336 2.80682 -79.3663
LeftForeArm  -33.5648 -38.8032 23.3049
LeftHand  1.03161 7.53686 1.235
RightShoulder  -2.48481e-017 0 -8.08114e-019
RightArm  10.866 -70.0735 58.2316
RightForeArm  -11.9723 10.9665 3.68629
RightHand  1.45182 -13.4922 -1.98005
LeftUpLeg  16.5313 -5.93877 9.47434
LeftLeg  25.9543 -11.4036 -1.26028
LeftFoot  1.83902 1.69594 -12.7563
LeftToes  4.502e-010 -1.85808e-011 5.37561e-011
